<?xml version="1.0" standalone="no"?>
<!DOCTYPE svg PUBLIC "-//W3C//DTD SVG 20010904//EN"
 "http://www.w3.org/TR/2001/REC-SVG-20010904/DTD/svg10.dtd">
<svg version="1.0" xmlns="http://www.w3.org/2000/svg"
 width="233.000000pt" height="217.000000pt" viewBox="0 0 233.000000 217.000000"
 preserveAspectRatio="xMidYMid meet">

<g transform="translate(0.000000,217.000000) scale(0.100000,-0.100000)"
fill="#1B41AB"  stroke="none">
<path d="M2130 2115 c-74 -30 -578 -239 -1120 -464 -819 -339 -987 -412 -999
-433 -30 -52 -11 -63 376 -228 197 -84 361 -156 366 -160 4 -3 25 -180 46
-392 21 -212 44 -394 50 -406 14 -27 45 -36 71 -22 11 6 110 123 220 260 110
138 204 250 209 250 5 0 172 -76 370 -170 199 -93 372 -170 384 -170 54 0 50
-28 141 988 86 944 88 992 56 992 -4 0 -14 2 -22 5 -7 3 -74 -20 -148 -50z
m63 -172 c-2 -16 -35 -383 -74 -818 -38 -434 -71 -791 -73 -792 -1 -2 -101 44
-222 101 -120 57 -329 155 -464 218 -135 63 -244 118 -243 123 2 12 1065 1195
1074 1195 3 0 4 -12 2 -27z m-228 -32 c-3 -5 -257 -229 -566 -496 -409 -355
-565 -485 -577 -481 -65 24 -591 252 -592 257 0 3 390 168 867 366 1007 419
876 365 868 354z m-458 -606 l-475 -527 -47 -219 c-27 -121 -50 -217 -52 -216
-6 6 -54 500 -51 524 2 17 162 162 548 497 300 260 546 472 548 471 2 -2 -210
-240 -471 -530z m-275 -725 c-20 -25 -82 -103 -137 -173 -55 -69 -103 -126
-106 -127 -4 0 61 319 86 417 5 22 7 22 99 -24 l95 -47 -37 -46z"/>
</g>
</svg>
